HIERARCHY
ROOT Hips
{
	OFFSET 0.00000 0.00000 0.00000
	CHANNELS 6 Xposition Yposition Zposition Yrotation Zrotation Xrotation 
	JOINT Lumbar
	{
		OFFSET 0 0 0
		CHANNELS 3 Zrotation Xrotation Yrotation
		JOINT Neck
		{
			OFFSET 0.00 0.2701 0.00
			CHANNELS 3 Zrotation Xrotation Yrotation
			End Site
			{
				OFFSET 0.00 0.1379 0.00
			}
		}
		JOINT RightShoulder
		{
			OFFSET 0.0119 0.2289 0.1181
			CHANNELS 3 Zrotation Xrotation Yrotation
			JOINT RightElbow
			{
				OFFSET 0.00 -0.1475 0.00
				CHANNELS 2 Zrotation Yrotation
				JOINT RightWrist
				{
					OFFSET 0.00 -0.1605 0.00
					CHANNELS 2 Zrotation Xrotation
					End Site
					{
						OFFSET 0.0040 -0.1068 0.0006
					}
				}
			}
		}
		JOINT LeftShoulder
		{
			OFFSET 0.0119 0.2289 -0.1181
			CHANNELS 3 Zrotation Xrotation Yrotation
			JOINT LeftElbow
			{
				OFFSET 0.00 -0.1475 0.00
				CHANNELS 2 Zrotation Yrotation
				JOINT LeftWrist
				{
					OFFSET 0.00 -0.1605 0.00
					CHANNELS 2 Zrotation Xrotation
					End Site
					{
						OFFSET 0.0040 -0.1068 -0.0006
					}
				}
			}
		}
	}
	JOINT RightHip
	{
		OFFSET 0.0316 -0.0424 0.0458
		CHANNELS 3 Zrotation Xrotation Yrotation
		JOINT RightKnee
		{
			OFFSET 0.00 -0.2438 0.00
			CHANNELS 1 Zrotation
			JOINT RightAnkle
			{
				OFFSET 0.00 -0.2449 0.00
				CHANNELS 3 Zrotation Xrotation Yrotation
				End Site
				{
					OFFSET 0.1237 -0.0542 0.0051
				}
			}
		}
	}
	JOINT LeftHip
	{
		OFFSET 0.0316 -0.0424 -0.0458
		CHANNELS 3 Zrotation Xrotation Yrotation
		JOINT LeftKnee
		{
			OFFSET 0.00 -0.2438 0.00
			CHANNELS 1 Zrotation
			JOINT LeftAnkle
			{
				OFFSET 0.00 -0.2449 0.00
				CHANNELS 3 Zrotation Xrotation Yrotation
				End Site
				{
					OFFSET 0.1237 -0.0542 -0.0051
				}
			}
		}
	}
}
MOTION
Frames: 33
Frame Time: 0.02
0.80085 0.4123 0.25825 536.78688 0 5.49379 6.73155 -2.88513 -6.68639 -59.93913 -2.39971 5.00562 44.25025 -21.37965 30.58854 113.11475 64.10911 -21.31959 0.30126 48.55934 11.91331 -25.27822 113.61855 -106.89963 -30.17691 6.52985 69.31757 12.40165 -1.39625 -73.53263 -3.90505 -2.04817 -3.21115 88.21131 -12.62241 28.67172 -89.36479 -16.84174 1.55171 -1.80047
0.80091 0.41228 0.25827 536.79494 0 5.49784 6.83207 -2.90465 -6.28531 -59.88114 -2.05013 4.8835 44.2029 -21.43526 30.58053 113.14618 63.94487 -21.40357 0.31677 48.51585 11.86912 -25.28918 113.64394 -106.81442 -30.08782 6.5243 69.32919 12.40037 -1.38015 -73.53574 -3.91588 -2.04619 -3.20776 88.22942 -12.62279 28.64452 -89.36565 -16.83971 1.55178 -1.78814
0.80098 0.41224 0.25828 536.80518 0 5.50205 6.92114 -2.92723 -5.74644 -59.82742 -1.57957 4.70529 44.1478 -21.50241 30.5487 113.19019 63.75378 -21.44677 0.34147 48.48734 11.8159 -25.3132 113.66233 -106.74363 -30.01685 6.52092 69.34339 12.3976 -1.3644 -73.53961 -3.92655 -2.04593 -3.20121 88.25288 -12.62365 28.60874 -89.35675 -16.82992 1.55087 -1.77178
0.80105 0.41221 0.25829 536.81481 0 5.50584 7.01429 -2.94797 -5.29439 -59.77048 -1.18536 4.56134 44.09876 -21.56292 30.53922 113.22669 63.58403 -21.54326 0.35696 48.44997 11.76947 -25.33308 113.68804 -106.66677 -29.93728 6.51647 69.35638 12.39561 -1.34865 -73.54333 -3.93688 -2.04497 -3.19704 88.27316 -12.62413 28.5785 -89.35106 -16.8239 1.55043 -1.75784
0.80112 0.41218 0.25831 536.82257 0 5.51106 7.11062 -2.97035 -4.74223 -59.71297 -0.7017 4.38098 44.03452 -21.62982 30.4839 113.27313 63.37732 -21.50059 0.39265 48.41459 11.71197 -25.34505 113.70108 -106.58676 -29.85871 6.51213 69.37041 12.39324 -1.33263 -73.54741 -3.9487 -2.0435 -3.18869 88.29745 -12.6252 28.54093 -89.35148 -16.81687 1.54992 -1.74086
0.80119 0.41215 0.25832 536.83473 0 5.51336 7.19804 -2.99018 -4.36411 -59.65915 -0.37449 4.26264 44.00096 -21.686 30.51645 113.30102 63.23952 -21.73296 0.3893 48.38076 11.67504 -25.37671 113.73626 -106.51697 -29.78286 6.50815 69.38256 12.39128 -1.31718 -73.55052 -3.95748 -2.04355 -3.18823 88.31444 -12.62521 28.51669 -89.33667 -16.81008 1.54932 -1.72938
0.80123 0.41215 0.25834 536.85986 0 5.50735 7.2656 -3.00175 -4.51167 -59.62438 -0.51852 4.33205 44.06461 -21.70933 30.80817 113.27381 63.31221 -22.76103 0.27051 48.35277 11.70004 -25.4595 113.84361 -106.47448 -29.70665 6.50477 69.38858 12.39084 -1.3022 -73.5502 -3.95796 -2.04767 -3.21193 88.30852 -12.62188 28.53198 -89.2801 -16.80591 1.54868 -1.73514
0.80127 0.41215 0.25835 536.88914 0 5.49844 7.32441 -3.01078 -4.8364 -59.59226 -0.82191 4.46498 44.15812 -21.72156 31.18679 113.22735 63.45283 -24.0608 0.11323 48.32577 11.74548 -25.56159 113.97125 -106.44158 -29.63321 6.5017 69.39253 12.39085 -1.28791 -73.54882 -3.95542 -2.05323 -3.24341 88.29519 -12.61753 28.56091 -89.20881 -16.80223 1.54798 -1.74644
0.80131 0.41214 0.25836 536.91569 0 5.49103 7.38623 -3.02134 -5.07306 -59.55347 -1.04667 4.56728 44.23196 -21.73894 31.5185 113.18984 63.55304 -25.21935 -0.02284 48.29608 11.7797 -25.65511 114.08284 -106.40262 -29.56084 6.49841 69.39749 12.39062 -1.27386 -73.54813 -3.95428 -2.05797 -3.27033 88.28609 -12.61387 28.58328 -89.14543 -16.79826 1.54734 -1.7546
0.80135 0.41214 0.25837 536.94588 0 5.48288 7.45189 -3.03044 -5.3388 -59.53796 -1.29543 4.67615 44.33159 -21.75591 31.88115 113.15178 63.69157 -26.45506 -0.17441 48.27672 11.8219 -25.74879 114.22278 -106.37088 -29.47941 6.49546 69.4023 12.39047 -1.25742 -73.54663 -3.95301 -2.06348 -3.30149 88.27364 -12.6093 28.60696 -89.07643 -16.79432 1.54654 -1.76527
0.80138 0.41214 0.25838 536.96945 0 5.47553 7.5074 -3.04191 -5.58535 -59.47433 -1.53111 4.78579 44.3842 -21.77144 32.19978 113.11038 63.76807 -27.59059 -0.30282 48.23532 11.8523 -25.84583 114.30896 -106.32674 -29.4171 6.49191 69.40686 12.39028 -1.24619 -73.54652 -3.95133 -2.0677 -3.32567 88.26624 -12.60635 28.63114 -89.01594 -16.79054 1.54606 -1.77206
0.80139 0.41212 0.25839 536.97369 0 5.47153 7.53894 -3.06071 -5.75811 -59.279 -1.7142 4.89456 44.30398 -21.78168 32.3796 113.062 63.64494 -28.4218 -0.35892 48.13753 11.84595 -25.95386 114.23799 -106.24158 -29.40837 6.48619 69.41138 12.38995 -1.24859 -73.55067 -3.94914 -2.068 -3.32889 88.27525 -12.60823 28.65447 -88.98108 -16.78695 1.54656 -1.76713
0.80138 0.4121 0.25839 536.97112 0 5.46835 7.56019 -3.08198 -5.90238 -59.03463 -1.87527 5.00027 44.17443 -21.79172 32.51129 113.01137 63.45894 -29.13586 -0.39016 48.01635 11.8267 -26.06344 114.11278 -106.14457 -29.41856 6.47996 69.41566 12.38955 -1.25632 -73.55621 -3.94669 -2.06695 -3.32476 88.28943 -12.61174 28.67766 -88.95562 -16.78357 1.54737 -1.75808
0.80138 0.41208 0.2584 536.9717 0 5.46448 7.58506 -3.10197 -6.04498 -58.81176 -2.03197 5.09894 44.06498 -21.80425 32.66271 112.96324 63.31012 -29.87824 -0.43223 47.90304 11.81311 -26.1679 114.01502 -106.05555 -29.41881 6.4742 69.41993 12.38913 -1.262 -73.56101 -3.94443 -2.06652 -3.32388 88.30079 -12.61443 28.7002 -88.92684 -16.78023 1.548 -1.75071
0.80138 0.41206 0.2584 536.97223 0 5.46181 7.6144 -3.12241 -6.25344 -58.59307 -2.25391 5.2337 43.96729 -21.80561 32.82691 112.90799 63.1291 -30.73496 -0.47792 47.80243 11.80192 -26.29129 113.90672 -105.95505 -29.4242 6.46732 69.42463 12.38893 -1.2661 -73.56625 -3.94169 -2.06613 -3.32372 88.31392 -12.61743 28.7262 -88.89346 -16.77634 1.54879 -1.74433
0.80138 0.41204 0.25841 536.97115 0 5.45689 7.63172 -3.14269 -6.31811 -58.35301 -2.33386 5.29385 43.8318 -21.83117 32.95104 112.86759 62.99711 -31.32256 -0.50927 47.66855 11.78136 -26.37585 113.80651 -105.87657 -29.42411 6.46278 69.42839 12.38827 -1.27477 -73.57089 -3.94002 -2.06531 -3.32015 88.32467 -12.62017 28.74482 -88.87218 -16.77363 1.54933 -1.73486
0.80135 0.41203 0.25842 536.96749 0 5.44549 7.62145 -3.16044 -5.97114 -58.07428 -2.01617 5.13025 43.61418 -21.9163 32.98341 112.86621 63.03458 -31.19063 -0.51024 47.45908 11.74714 -26.34838 113.74813 -105.85254 -29.39772 6.46374 69.42969 12.38625 -1.29491 -73.57372 -3.94079 -2.06364 -3.30944 88.32785 -12.62177 28.74274 -88.8813 -16.77429 1.54919 -1.71751
0.80132 0.41202 0.25843 536.96236 0 5.43178 7.59887 -3.17817 -5.48371 -57.7741 -1.55767 4.89477 43.35815 -22.02713 32.97533 112.88042 63.1197 -30.79131 -0.49682 47.2149 11.70223 -26.28245 113.69857 -105.85272 -29.36642 6.46725 69.43004 12.38379 -1.31949 -73.57587 -3.94279 -2.06156 -3.2954 88.32848 -12.62304 28.73323 -88.9025 -16.77612 1.5488 -1.69723
0.80129 0.41201 0.25844 536.95779 0 5.41924 7.57994 -3.19697 -5.07374 -57.47831 -1.16992 4.70404 43.11287 -22.13114 32.98068 112.88928 63.17048 -30.51654 -0.48776 46.97976 11.65605 -26.237 113.64072 -105.84788 -29.34154 6.47032 69.43076 12.38161 -1.34188 -73.57823 -3.94462 -2.05966 -3.28261 88.33009 -12.62446 28.72731 -88.91869 -16.77732 1.5485 -1.67843
0.80126 0.41199 0.25846 536.95352 0 5.40637 7.56895 -3.21164 -4.60494 -57.20369 -0.75262 4.46238 42.89423 -22.21495 33.00536 112.89076 63.27285 -30.22572 -0.48721 46.7725 11.63494 -26.17918 113.59879 -105.81751 -29.29937 6.47041 69.4317 12.37911 -1.36498 -73.58108 -3.94479 -2.05781 -3.27088 88.33248 -12.62597 28.72052 -88.9331 -16.77889 1.54829 -1.65876
0.80123 0.41199 0.25847 536.94827 0 5.39341 7.53851 -3.23453 -4.22615 -56.88023 -0.36415 4.30957 42.6116 -22.34653 32.98074 112.91131 63.27964 -29.90548 -0.46568 46.49892 11.55971 -26.13765 113.52686 -105.84603 -29.29214 6.47722 69.43201 12.37716 -1.38786 -73.58272 -3.94874 -2.05571 -3.25601 88.33277 -12.62717 28.71373 -88.95407 -16.78002 1.54785 -1.64042
0.80121 0.412 0.25847 536.94141 0 5.38266 7.45838 -3.28319 -4.12624 -56.42937 -0.0858 4.42151 42.16174 -22.60761 32.82989 112.98113 63.01332 -29.57545 -0.39085 46.05294 11.33369 -26.15298 113.36724 -106.0326 -29.37934 6.50271 69.43035 12.37673 -1.40662 -73.58121 -3.96253 -2.05352 -3.23526 88.32607 -12.62775 28.70933 -88.98924 -16.77932 1.54675 -1.62509
0.80118 0.41201 0.25847 536.93352 0 5.37156 7.3589 -3.33957 -4.12264 -55.92978 0.15789 4.62507 41.64894 -22.91527 32.63069 113.06949 62.64929 -29.22359 -0.29523 45.5409 11.0544 -26.18531 113.17813 -106.27713 -29.50212 6.5347 69.42819 12.3769 -1.42538 -73.57851 -3.98016 -2.05101 -3.21119 88.31765 -12.628 28.7051 -89.03073 -16.77821 1.54545 -1.61145
0.80115 0.41203 0.25847 536.92559 0 5.35932 7.26778 -3.39033 -4.07772 -55.45149 0.41475 4.78542 41.16527 -23.19889 32.45434 113.14916 62.32829 -28.87944 -0.20866 45.05799 10.80215 -26.20857 113.00427 -106.49459 -29.61098 6.56324 69.42657 12.37687 -1.44577 -73.57634 -3.99624 -2.04831 -3.18733 88.31117 -12.6283 28.70035 -89.06991 -16.77753 1.54431 -1.59797
0.80113 0.41205 0.25846 536.91966 0 5.35234 7.17834 -3.44986 -4.01752 -54.97664 0.68731 4.94966 40.67839 -23.49502 32.27441 113.23071 62.01352 -28.53885 -0.12364 44.57845 10.53753 -26.23721 112.82196 -106.71702 -29.7113 6.59408 69.4236 12.3765 -1.45967 -73.57418 -4.01152 -2.04696 -3.16864 88.29973 -12.62899 28.6971 -89.10716 -16.77586 1.54287 -1.58054
0.8011 0.41205 0.25847 536.90947 0 5.33453 7.0806 -3.49313 -4.01388 -54.4825 0.91724 5.12882 40.18326 -23.77646 32.08903 113.31228 61.66347 -28.18461 -0.03014 44.07563 10.28622 -26.25789 112.65132 -106.94124 -29.83654 6.62151 69.42336 12.37699 -1.48671 -73.57177 -4.02936 -2.04279 -3.1387 88.29822 -12.62883 28.69102 -89.14976 -16.77612 1.542 -1.57168
0.8011 0.41202 0.25852 536.88671 0 5.2854 6.9678 -3.48829 -4.14316 -53.95449 1.03608 5.32441 39.68578 -24.00039 31.91532 113.39038 61.22748 -27.84047 0.07666 43.5336 10.08399 -26.26312 112.51017 -107.16771 -30.03466 6.63879 69.43064 12.37973 -1.55268 -73.56849 -4.05333 -2.03043 -3.07634 88.32495 -12.62608 28.67584 -89.20575 -16.78194 1.54277 -1.587
0.80109 0.41197 0.25858 536.85992 0 5.22567 6.8467 -3.46713 -4.32652 -53.4076 1.11305 5.53268 39.1818 -24.20888 31.73379 113.46674 60.76187 -27.47835 0.1918 42.96899 9.89706 -26.25754 112.3837 -107.39186 -30.255 6.65219 69.44071 12.38331 -1.63133 -73.56507 -4.07975 -2.01534 -3.00322 88.36173 -12.62254 28.65813 -89.26688 -16.78967 1.54411 -1.61068
0.80109 0.41193 0.25863 536.83565 0 5.17179 6.72749 -3.45426 -4.48584 -52.86433 1.2094 5.73705 38.67724 -24.42785 31.54812 113.5443 60.31724 -27.09597 0.30676 42.40896 9.70379 -26.25059 112.25687 -107.60928 -30.45586 6.66681 69.44964 12.38651 -1.70241 -73.56209 -4.10497 -2.00183 -2.93645 88.39365 -12.61957 28.64239 -89.32541 -16.79646 1.54517 -1.62997
0.80108 0.41189 0.25868 536.80839 0 5.11352 6.61589 -3.43776 -4.64686 -52.33962 1.30225 5.93661 38.18384 -24.63361 31.39911 113.6244 59.83579 -26.82621 0.4086 41.87033 9.50655 -26.2724 112.10198 -107.86108 -30.69451 6.68412 69.4581 12.38973 -1.78119 -73.5576 -4.13057 -1.9869 -2.86334 88.42659 -12.61571 28.62299 -89.38502 -16.80362 1.54629 -1.65198
0.80108 0.41185 0.25874 536.78651 0 5.0619 6.4863 -3.42509 -4.81506 -51.77324 1.39398 6.14813 37.66838 -24.86288 31.16514 113.69401 59.42738 -26.32604 0.53777 41.28295 9.3213 -26.22944 112.00991 -108.04062 -30.86309 6.69462 69.46813 12.39309 -1.84688 -73.55608 -4.15605 -1.97426 -2.80101 88.45999 -12.61349 28.61086 -89.44382 -16.81035 1.54742 -1.67009
0.80107 0.41181 0.25881 536.77938 0 5.0309 6.31252 -3.42496 -4.99752 -51.08989 1.4834 6.38888 37.08003 -25.15824 30.76244 113.76874 59.20891 -25.12361 0.7556 40.56423 9.17057 -26.02762 112.08347 -108.01525 -30.79907 6.68897 69.4822 12.39681 -1.87415 -73.56384 -4.17948 -1.96885 -2.77011 88.49096 -12.61631 28.61744 -89.49669 -16.81625 1.54853 -1.67655
0.80107 0.41177 0.25888 536.77788 0 5.00685 6.1203 -3.42953 -5.18357 -50.36693 1.57502 6.64127 36.47411 -25.47804 30.26321 113.82313 59.06797 -23.70235 0.99816 39.79803 9.03047 -25.75742 112.22065 -107.91814 -30.66942 6.67631 69.49753 12.40061 -1.88798 -73.57411 -4.20284 -1.96577 -2.75041 88.52243 -12.62076 28.63185 -89.54919 -16.82136 1.5496 -1.67823
